<svg id="visual" viewBox="0 0 900 600" width="900" height="600" xmlns="http://www.w3.org/2000/svg" xmlns:xlink="http://www.w3.org/1999/xlink" version="1.1"><rect x="0" y="0" width="900" height="600" fill="#001220"></rect><defs><linearGradient id="grad1_0" x1="33.3%" y1="0%" x2="100%" y2="100%"><stop offset="20%" stop-color="#001220" stop-opacity="1"></stop><stop offset="80%" stop-color="#001220" stop-opacity="1"></stop></linearGradient></defs><defs><linearGradient id="grad2_0" x1="0%" y1="0%" x2="66.7%" y2="100%"><stop offset="20%" stop-color="#001220" stop-opacity="1"></stop><stop offset="80%" stop-color="#001220" stop-opacity="1"></stop></linearGradient></defs><g transform="translate(900, 0)"><path d="M0 486.7C-70 486.2 -140 485.7 -186.3 449.7C-232.6 413.7 -255.2 342.1 -293.4 293.4C-331.7 244.8 -385.5 219.2 -420.4 174.1C-455.2 129 -471 64.5 -486.7 0L0 0Z" fill="#FBAE3C"></path></g><g transform="translate(0, 600)"><path d="M0 -486.7C55.7 -447.6 111.4 -408.5 155 -374.2C198.6 -339.8 230.2 -310.2 283.5 -283.5C336.9 -256.9 412.2 -233 449.7 -186.3C487.2 -139.5 487 -69.7 486.7 0L0 0Z" fill="#FBAE3C"></path></g></svg>