<svg id="visual" viewBox="0 0 900 600" width="900" height="600" xmlns="http://www.w3.org/2000/svg" xmlns:xlink="http://www.w3.org/1999/xlink" version="1.1"><g stroke-width="1" stroke-linejoin="bevel"><path d="M435 262L515 333L523 211Z" fill="#1d4e6b" stroke="#1d4e6b"></path><path d="M515 333L576 275L523 211Z" fill="#277297" stroke="#277297"></path><path d="M515 333L569 374L576 275Z" fill="#246688" stroke="#246688"></path><path d="M382 366L492 401L515 333Z" fill="#297ea6" stroke="#297ea6"></path><path d="M515 333L492 401L569 374Z" fill="#15384f" stroke="#15384f"></path><path d="M684 186L613 184L576 275Z" fill="#1d4e6b" stroke="#1d4e6b"></path><path d="M576 275L613 184L523 211Z" fill="#205a7a" stroke="#205a7a"></path><path d="M435 262L382 366L515 333Z" fill="#19435d" stroke="#19435d"></path><path d="M537 101L412 125L523 211Z" fill="#00101c" stroke="#00101c"></path><path d="M523 211L412 125L435 262Z" fill="#081a28" stroke="#081a28"></path><path d="M435 262L270 269L382 366Z" fill="#00101c" stroke="#00101c"></path><path d="M412 125L368 161L435 262Z" fill="#277297" stroke="#277297"></path><path d="M613 184L537 101L523 211Z" fill="#081a28" stroke="#081a28"></path><path d="M613 184L580 85L537 101Z" fill="#277297" stroke="#277297"></path><path d="M537 101L473 0L412 125Z" fill="#15384f" stroke="#15384f"></path><path d="M720 329L684 186L576 275Z" fill="#297ea6" stroke="#297ea6"></path><path d="M613 184L661 125L580 85Z" fill="#19435d" stroke="#19435d"></path><path d="M590 517L665 399L569 374Z" fill="#081a28" stroke="#081a28"></path><path d="M569 374L665 399L576 275Z" fill="#246688" stroke="#246688"></path><path d="M684 186L661 125L613 184Z" fill="#277297" stroke="#277297"></path><path d="M284 126L289 210L368 161Z" fill="#246688" stroke="#246688"></path><path d="M368 161L289 210L435 262Z" fill="#081a28" stroke="#081a28"></path><path d="M416 523L514 496L492 401Z" fill="#277297" stroke="#277297"></path><path d="M492 401L514 496L569 374Z" fill="#1d4e6b" stroke="#1d4e6b"></path><path d="M665 399L720 329L576 275Z" fill="#0c2435" stroke="#0c2435"></path><path d="M289 210L270 269L435 262Z" fill="#19435d" stroke="#19435d"></path><path d="M382 366L416 523L492 401Z" fill="#1d4e6b" stroke="#1d4e6b"></path><path d="M270 269L261 362L382 366Z" fill="#0c2435" stroke="#0c2435"></path><path d="M289 210L199 178L270 269Z" fill="#297ea6" stroke="#297ea6"></path><path d="M412 125L284 126L368 161Z" fill="#1d4e6b" stroke="#1d4e6b"></path><path d="M337 0L284 126L412 125Z" fill="#15384f" stroke="#15384f"></path><path d="M514 496L590 517L569 374Z" fill="#081a28" stroke="#081a28"></path><path d="M665 399L794 409L720 329Z" fill="#205a7a" stroke="#205a7a"></path><path d="M275 495L416 523L382 366Z" fill="#0c2435" stroke="#0c2435"></path><path d="M514 496L462 600L590 517Z" fill="#19435d" stroke="#19435d"></path><path d="M613 0L473 0L580 85Z" fill="#112e42" stroke="#112e42"></path><path d="M580 85L473 0L537 101Z" fill="#112e42" stroke="#112e42"></path><path d="M473 0L426 0L412 125Z" fill="#297ea6" stroke="#297ea6"></path><path d="M590 517L695 479L665 399Z" fill="#0c2435" stroke="#0c2435"></path><path d="M661 125L613 0L580 85Z" fill="#15384f" stroke="#15384f"></path><path d="M794 409L811 302L720 329Z" fill="#205a7a" stroke="#205a7a"></path><path d="M720 329L811 302L684 186Z" fill="#246688" stroke="#246688"></path><path d="M821 107L691 0L661 125Z" fill="#297ea6" stroke="#297ea6"></path><path d="M661 125L691 0L613 0Z" fill="#246688" stroke="#246688"></path><path d="M191 120L199 178L284 126Z" fill="#205a7a" stroke="#205a7a"></path><path d="M284 126L199 178L289 210Z" fill="#0c2435" stroke="#0c2435"></path><path d="M161 333L194 382L261 362Z" fill="#112e42" stroke="#112e42"></path><path d="M426 0L337 0L412 125Z" fill="#205a7a" stroke="#205a7a"></path><path d="M261 362L275 495L382 366Z" fill="#0c2435" stroke="#0c2435"></path><path d="M195 463L275 495L261 362Z" fill="#0c2435" stroke="#0c2435"></path><path d="M161 333L261 362L270 269Z" fill="#081a28" stroke="#081a28"></path><path d="M695 479L794 409L665 399Z" fill="#246688" stroke="#246688"></path><path d="M416 523L462 600L514 496Z" fill="#00101c" stroke="#00101c"></path><path d="M590 517L671 600L695 479Z" fill="#246688" stroke="#246688"></path><path d="M410 600L462 600L416 523Z" fill="#1d4e6b" stroke="#1d4e6b"></path><path d="M821 107L661 125L684 186Z" fill="#277297" stroke="#277297"></path><path d="M811 302L823 165L684 186Z" fill="#081a28" stroke="#081a28"></path><path d="M318 600L410 600L416 523Z" fill="#081a28" stroke="#081a28"></path><path d="M188 0L191 120L284 126Z" fill="#19435d" stroke="#19435d"></path><path d="M199 178L161 333L270 269Z" fill="#112e42" stroke="#112e42"></path><path d="M96 395L161 333L76 309Z" fill="#081a28" stroke="#081a28"></path><path d="M462 600L616 600L590 517Z" fill="#246688" stroke="#246688"></path><path d="M695 479L835 506L794 409Z" fill="#19435d" stroke="#19435d"></path><path d="M96 395L195 463L194 382Z" fill="#19435d" stroke="#19435d"></path><path d="M194 382L195 463L261 362Z" fill="#15384f" stroke="#15384f"></path><path d="M275 495L318 600L416 523Z" fill="#081a28" stroke="#081a28"></path><path d="M823 165L821 107L684 186Z" fill="#246688" stroke="#246688"></path><path d="M616 600L671 600L590 517Z" fill="#205a7a" stroke="#205a7a"></path><path d="M227 600L318 600L275 495Z" fill="#277297" stroke="#277297"></path><path d="M900 439L900 274L811 302Z" fill="#246688" stroke="#246688"></path><path d="M811 302L900 205L823 165Z" fill="#081a28" stroke="#081a28"></path><path d="M823 165L900 82L821 107Z" fill="#00101c" stroke="#00101c"></path><path d="M900 439L811 302L794 409Z" fill="#112e42" stroke="#112e42"></path><path d="M900 274L900 205L811 302Z" fill="#15384f" stroke="#15384f"></path><path d="M781 600L835 506L695 479Z" fill="#00101c" stroke="#00101c"></path><path d="M337 0L188 0L284 126Z" fill="#15384f" stroke="#15384f"></path><path d="M76 309L161 333L199 178Z" fill="#297ea6" stroke="#297ea6"></path><path d="M161 333L96 395L194 382Z" fill="#081a28" stroke="#081a28"></path><path d="M195 463L227 600L275 495Z" fill="#15384f" stroke="#15384f"></path><path d="M76 309L199 178L71 183Z" fill="#246688" stroke="#246688"></path><path d="M99 111L199 178L191 120Z" fill="#112e42" stroke="#112e42"></path><path d="M96 600L227 600L195 463Z" fill="#205a7a" stroke="#205a7a"></path><path d="M188 0L99 111L191 120Z" fill="#112e42" stroke="#112e42"></path><path d="M671 600L781 600L695 479Z" fill="#205a7a" stroke="#205a7a"></path><path d="M900 82L839 0L821 107Z" fill="#0c2435" stroke="#0c2435"></path><path d="M821 107L839 0L691 0Z" fill="#0c2435" stroke="#0c2435"></path><path d="M900 528L900 439L835 506Z" fill="#081a28" stroke="#081a28"></path><path d="M835 506L900 439L794 409Z" fill="#1d4e6b" stroke="#1d4e6b"></path><path d="M99 111L71 183L199 178Z" fill="#0c2435" stroke="#0c2435"></path><path d="M900 205L900 82L823 165Z" fill="#0c2435" stroke="#0c2435"></path><path d="M0 370L85 486L96 395Z" fill="#0c2435" stroke="#0c2435"></path><path d="M96 395L85 486L195 463Z" fill="#112e42" stroke="#112e42"></path><path d="M900 600L900 528L835 506Z" fill="#277297" stroke="#277297"></path><path d="M900 82L900 0L839 0Z" fill="#0c2435" stroke="#0c2435"></path><path d="M0 210L0 263L71 183Z" fill="#297ea6" stroke="#297ea6"></path><path d="M71 183L0 263L76 309Z" fill="#277297" stroke="#277297"></path><path d="M76 309L0 370L96 395Z" fill="#277297" stroke="#277297"></path><path d="M188 0L79 0L99 111Z" fill="#205a7a" stroke="#205a7a"></path><path d="M0 66L0 210L71 183Z" fill="#00101c" stroke="#00101c"></path><path d="M0 66L71 183L99 111Z" fill="#112e42" stroke="#112e42"></path><path d="M0 263L0 370L76 309Z" fill="#246688" stroke="#246688"></path><path d="M781 600L900 600L835 506Z" fill="#1d4e6b" stroke="#1d4e6b"></path><path d="M85 486L96 600L195 463Z" fill="#246688" stroke="#246688"></path><path d="M0 516L96 600L85 486Z" fill="#00101c" stroke="#00101c"></path><path d="M79 0L0 66L99 111Z" fill="#0c2435" stroke="#0c2435"></path><path d="M0 370L0 516L85 486Z" fill="#00101c" stroke="#00101c"></path><path d="M79 0L0 0L0 66Z" fill="#246688" stroke="#246688"></path><path d="M0 516L0 600L96 600Z" fill="#081a28" stroke="#081a28"></path></g></svg>